<svg xmlns:dc="http://purl.org/dc/elements/1.1/" xmlns:cc="http://creativecommons.org/ns#" xmlns:rdf="http://www.w3.org/1999/02/22-rdf-syntax-ns#" xmlns:svg="http://www.w3.org/2000/svg" xmlns="http://www.w3.org/2000/svg" xmlns:sodipodi="http://sodipodi.sourceforge.net/DTD/sodipodi-0.dtd" xmlns:inkscape="http://www.inkscape.org/namespaces/inkscape" version="1.1" x="0px" y="0px" viewBox="0 0 100 125"><g transform="translate(0,-952.36218)"><path style="text-indent:0;text-transform:none;direction:ltr;block-progression:tb;baseline-shift:baseline;color:#000000;enable-background:accumulate;" d="m 40.001602,963.3622 c -15.9578,0 -29.0016,13.03847 -29.0016,28.99002 0,15.95148 13.0437,28.98998 29.0016,28.98998 6.1774,0 11.9094,-1.9591 16.6259,-5.2794 l 23.845096,23.8355 c 1.9524,1.9518 5.1103,1.9519 7.0628,0 1.9528,-1.9519 1.9528,-5.1393 0,-7.0913 l -23.813696,-23.8042 c 3.327,-4.717 5.2815,-10.47011 5.2815,-16.65058 0,-15.95155 -13.0438,-28.99002 -29.0016,-28.99002 z m 0,9.99656 c 10.5531,0 19.001,8.44453 19.001,18.99346 0,10.54878 -8.448,18.99348 -19.001,18.99348 -10.553,0 -19.0011,-8.4447 -19.0011,-18.99348 0,-10.54893 8.448,-18.99346 19.0011,-18.99346 z" fill="#aa9da4" fill-opacity="1" stroke="none" marker="none" visibility="visible" display="inline" overflow="visible"/></g></svg>